<?xml version="1.0" standalone="no"?>
<!DOCTYPE svg PUBLIC "-//W3C//DTD SVG 20010904//EN"
 "http://www.w3.org/TR/2001/REC-SVG-20010904/DTD/svg10.dtd">
<svg version="1.0" xmlns="http://www.w3.org/2000/svg"
 width="1280.000000pt" height="956.000000pt" viewBox="0 0 1280.000000 956.000000"
 preserveAspectRatio="xMidYMid meet">
<g transform="translate(0.000000,956.000000) scale(0.100000,-0.100000)"
fill="#000000" stroke="none">
<path d="M1880 9551 c-24 -14 -435 -97 -693 -141 -131 -22 -247 -45 -257 -50
-9 -5 -22 -26 -28 -47 -89 -336 -85 -313 -66 -335 10 -11 31 -27 45 -35 52
-31 64 -100 26 -145 -12 -15 -56 -41 -97 -58 -144 -60 -311 -161 -420 -254
-76 -65 -135 -139 -177 -220 -19 -38 -43 -81 -53 -95 -47 -65 -82 -255 -110
-591 -6 -74 -20 -223 -32 -330 -23 -217 -21 -346 6 -655 23 -245 43 -383 73
-484 14 -47 36 -125 49 -174 24 -84 59 -174 139 -357 32 -71 39 -101 45 -183
11 -142 44 -205 196 -367 64 -69 216 -233 338 -365 216 -235 502 -527 661
-675 44 -41 254 -254 465 -473 l385 -397 0 -198 c0 -169 3 -212 23 -302 60
-271 138 -429 331 -665 180 -220 376 -363 749 -547 244 -120 465 -245 556
-315 75 -58 132 -94 233 -151 51 -29 123 -74 160 -101 37 -27 139 -88 226
-135 86 -48 210 -118 274 -157 129 -78 261 -146 338 -174 28 -10 73 -31 100
-46 153 -84 834 -262 1180 -309 228 -31 308 -24 609 52 556 139 1922 589 3201
1053 516 187 685 253 1020 393 369 156 429 188 554 305 319 296 524 566 594
782 18 55 136 615 192 909 23 124 40 255 50 389 8 111 19 258 25 327 12 154
13 396 1 510 -5 47 -15 157 -21 245 -19 251 -34 338 -70 411 -17 36 -45 74
-61 86 -16 12 -38 36 -48 54 -20 33 -181 154 -205 154 -8 0 -33 16 -56 35 -23
19 -86 58 -139 85 -53 28 -117 70 -143 94 -53 50 -123 86 -240 121 -46 15
-105 35 -133 47 -93 38 -896 248 -1135 296 -80 17 -183 35 -230 42 -47 7 -94
17 -105 23 -11 6 -87 14 -170 18 -170 8 -221 22 -275 74 -49 48 -97 65 -180
65 -66 0 -71 2 -80 24 -13 35 -44 48 -115 50 -51 1 -77 9 -167 53 -130 63
-305 167 -553 331 -200 132 -265 168 -1030 587 -331 181 -494 265 -525 270
-81 13 -171 46 -334 120 -89 40 -179 77 -201 80 -22 4 -49 16 -61 26 -51 47
-595 246 -1289 472 -251 82 -463 140 -680 186 -77 16 -189 41 -250 55 -60 14
-144 30 -185 35 -41 5 -138 21 -215 35 -229 41 -329 51 -1080 102 -179 12
-280 14 -400 7 -88 -4 -176 -7 -195 -6 -19 1 -122 4 -227 5 -216 3 -206 7
-184 -70 8 -27 7 -34 -12 -47 -12 -8 -26 -15 -32 -15 -5 0 -2 5 7 11 15 8 17
19 12 68 -8 74 16 153 61 201 52 55 66 94 83 230 13 107 14 131 3 144 -15 18
-29 20 -51 7z m-830 -673 c0 -17 -71 -110 -88 -116 -7 -2 6 26 29 62 39 63 59
81 59 54z m-810 -676 c0 -4 -9 -48 -20 -98 -11 -49 -25 -155 -32 -236 -12
-156 -6 -243 27 -344 24 -74 145 -315 161 -321 23 -9 78 -93 61 -93 -8 0 -27
19 -42 43 -16 23 -37 48 -48 56 -29 20 -142 259 -167 354 -21 75 -22 96 -16
252 7 195 40 395 66 395 6 0 10 -4 10 -8z m2675 -512 c187 -6 377 -18 480 -30
720 -86 1547 -317 2455 -685 505 -205 717 -310 1170 -583 344 -207 512 -319
508 -339 -4 -23 -85 -47 -283 -83 -298 -55 -935 -140 -1445 -195 -150 -16
-256 -32 -274 -41 -17 -9 -32 -11 -35 -5 -7 11 -202 -2 -321 -23 -47 -8 -152
-22 -235 -30 -256 -28 -326 -37 -445 -56 -63 -10 -182 -28 -265 -40 -345 -48
-584 -105 -895 -211 -207 -71 -333 -131 -413 -194 -56 -44 -59 -49 -52 -81 7
-39 0 -43 -24 -13 l-17 21 -32 -36 c-18 -20 -46 -64 -62 -96 -17 -33 -35 -60
-40 -60 -11 0 -373 288 -731 581 -118 97 -225 179 -236 183 -22 7 -129 102
-197 176 -22 24 -197 204 -388 400 -217 223 -402 423 -497 538 -83 101 -152
187 -152 192 -1 6 -3 22 -4 38 -2 15 -7 40 -11 56 -5 22 -4 28 7 24 8 -3 15
-14 17 -26 5 -34 45 -27 104 18 148 113 827 400 1203 510 335 98 479 109 1110
90z m6220 -1031 c14 -22 -3 -18 -26 7 -23 25 -23 26 -2 15 12 -6 25 -16 28
-22z m-1223 -624 c0 -5 -5 -11 -11 -13 -6 -2 -11 4 -11 13 0 9 5 15 11 13 6
-2 11 -8 11 -13z m1008 -564 c39 -11 31 -35 -15 -45 -22 -5 -126 -30 -232 -57
-204 -52 -246 -58 -237 -35 11 28 116 90 197 118 67 22 99 27 172 27 50 -1
101 -4 115 -8z m-7253 -73 c-3 -7 -5 -2 -5 12 0 14 2 19 5 13 2 -7 2 -19 0
-25z m1353 -308 c0 -5 -2 -10 -4 -10 -3 0 -8 5 -11 10 -3 6 -1 10 4 10 6 0 11
-4 11 -10z m5629 -604 c-8 -8 -230 -58 -235 -53 -3 2 41 16 98 30 96 24 147
32 137 23z m-1439 -362 c-69 -22 -120 -31 -108 -19 7 7 150 44 168 43 8 0 -19
-11 -60 -24z m-654 -259 c-11 -8 -22 -12 -25 -9 -6 6 19 24 34 24 6 -1 1 -7
-9 -15z m-3264 -2165 c25 -36 103 -120 172 -188 124 -120 137 -143 54 -101
-102 52 -248 233 -283 349 -9 32 -1 23 57 -60z m2878 -1450 c0 -13 -1 -13 -10
0 -5 8 -10 22 -10 30 0 13 1 13 10 0 5 -8 10 -22 10 -30z"/>
</g>
</svg>
